<svg version="1.1" id="Layer_1" xmlns="http://www.w3.org/2000/svg" xmlns:xlink="http://www.w3.org/1999/xlink" x="0px" y="0px"
	 width="100%" viewBox="0 0 551 188" enable-background="new 0 0 551 188" xml:space="preserve">
<path fill="#FDFDFD" opacity="1.000000" stroke="none" 
	d="
M434.000000,189.000000 
	C289.333344,189.000000 145.166672,189.000000 1.000000,189.000000 
	C1.000000,126.333336 1.000000,63.666668 1.000000,1.000000 
	C184.666672,1.000000 368.333344,1.000000 552.000000,1.000000 
	C552.000000,63.666668 552.000000,126.333336 552.000000,189.000000 
	C512.833313,189.000000 473.666656,189.000000 434.000000,189.000000 
M336.660522,92.800873 
	C349.634430,100.106354 363.392059,103.100014 378.293915,101.071861 
	C391.885223,99.222076 402.921387,90.707085 404.971008,79.834381 
	C407.550201,66.152451 401.802094,54.935112 388.349060,47.888187 
	C384.399261,45.819225 380.123627,44.381641 376.098450,42.444595 
	C372.529327,40.727043 368.749023,39.161236 365.690308,36.735977 
	C360.826477,32.879398 361.977173,26.531380 367.856171,24.610701 
	C371.059235,23.564260 374.848846,22.915705 378.055389,23.593872 
	C383.312286,24.705679 388.309692,27.044500 393.863037,29.025105 
	C396.842621,24.039095 400.133728,18.531811 403.607880,12.718190 
	C401.438141,11.492553 399.666595,10.304497 397.749420,9.439110 
	C384.559448,3.485331 371.024628,1.465864 357.253937,7.099048 
	C348.434265,10.706915 342.205231,16.961119 341.063812,26.929268 
	C339.853882,37.495529 343.894073,45.906452 352.707825,51.723854 
	C356.686737,54.350086 361.208984,56.147926 365.461151,58.366772 
	C370.294250,60.888771 375.529877,62.896057 379.815613,66.148285 
	C385.791412,70.683037 384.063171,78.507904 376.963470,81.006416 
	C375.275177,81.600555 373.416595,81.867233 371.618683,81.967422 
	C361.919006,82.507919 353.647888,78.257233 345.055359,73.542793 
	C341.610229,79.397369 338.264160,85.083580 334.339813,90.416656 
	C323.174316,62.299351 312.008820,34.182041 300.720276,5.754934 
	C295.061401,5.754934 289.398438,6.011012 283.773071,5.661741 
	C280.230347,5.441779 278.985138,6.943825 277.794708,9.986109 
	C266.708771,38.317532 255.449219,66.581024 244.221375,94.856827 
	C243.792984,95.935692 243.175690,96.939552 242.646439,97.978363 
	C242.386322,97.895706 242.126221,97.813049 241.866119,97.730392 
	C241.866119,92.294960 241.866119,86.859520 241.866119,81.034409 
	C230.460175,81.034409 219.374466,81.034409 207.752731,81.034409 
	C207.752731,55.762581 207.752731,30.889460 207.752731,6.035492 
	C200.440033,6.035492 193.676254,6.035492 186.744049,6.035492 
	C186.744049,37.393059 186.744049,68.470108 186.744049,99.732651 
	C212.945435,99.732651 238.985840,99.732651 265.116699,99.732651 
	C267.037598,94.547829 269.024597,89.612305 270.669678,84.565331 
	C271.502502,82.010201 272.560944,80.849686 275.517578,80.916138 
	C285.339783,81.136902 295.171661,81.097908 304.996063,80.933929 
	C307.617859,80.890175 308.801941,81.760452 309.601044,84.201775 
	C311.340424,89.515846 313.385284,94.729935 315.219086,99.748878 
	C322.971985,99.748878 330.211853,99.748878 337.487152,99.748878 
	C336.925507,97.311325 336.420776,95.120766 336.660522,92.800873 
M480.018036,42.500000 
	C480.018036,61.578876 480.018036,80.657753 480.018036,99.756950 
	C487.388275,99.756950 494.145477,99.756950 501.251068,99.756950 
	C501.251068,87.419044 501.251068,75.319534 501.251068,63.293316 
	C504.981293,61.805923 506.986603,62.972446 508.675812,66.204063 
	C513.990662,76.372070 519.547119,86.414963 525.108521,96.451729 
	C525.851135,97.791939 527.121277,99.787697 528.214661,99.832558 
	C535.554749,100.133743 542.913086,99.989273 550.938354,99.989273 
	C543.044373,86.496620 535.707764,73.956642 528.316406,61.323048 
	C529.309204,60.795353 529.867493,60.421810 530.478760,60.185089 
	C542.813171,55.408577 548.512390,44.926392 546.864502,30.016544 
	C545.483398,17.521032 536.383728,6.983741 524.333923,6.262303 
	C509.775787,5.390687 495.125580,6.055779 480.018036,6.055779 
	C480.018036,17.949383 480.018036,29.724691 480.018036,42.500000 
M43.598118,36.104527 
	C30.558842,57.202305 17.519564,78.300079 4.324599,99.649765 
	C31.844719,99.649765 58.422466,99.649765 84.847092,99.649765 
	C84.847092,93.357903 84.847092,87.417412 84.847092,80.872627 
	C70.457527,80.872627 56.313007,80.872627 41.588390,80.872627 
	C57.207478,55.629307 72.385849,31.098265 87.848976,6.106998 
	C61.672306,6.106998 36.329590,6.106998 11.172197,6.106998 
	C11.172197,12.359829 11.172197,18.255924 11.172197,24.431980 
	C24.311411,24.431980 37.065792,24.431980 50.721802,24.431980 
	C48.218369,28.514318 46.086201,31.991234 43.598118,36.104527 
M470.510956,24.152140 
	C470.948212,18.184891 471.385468,12.217641 471.840668,6.005371 
	C451.230133,6.005371 431.502869,6.005371 411.654510,6.005371 
	C411.654510,37.440639 411.654510,68.622742 411.654510,99.707481 
	C431.770844,99.707481 451.526428,99.707481 471.233887,99.707481 
	C471.233887,93.456512 471.233887,87.500771 471.233887,81.047050 
	C458.306122,81.047050 445.572906,81.047050 432.699738,81.047050 
	C432.699738,74.456802 432.699738,68.369324 432.699738,61.856346 
	C445.536621,61.856346 458.122467,61.856346 470.888733,61.856346 
	C470.888733,55.687107 470.888733,49.946568 470.888733,43.732620 
	C458.112396,43.732620 445.550018,43.732620 432.778198,43.732620 
	C432.778198,37.032200 432.778198,30.808491 432.778198,24.235458 
	C445.243866,24.235458 457.375214,24.235458 470.510956,24.152140 
M471.499847,185.544052 
	C497.250427,185.544052 523.000977,185.544052 548.776245,185.544052 
	C548.776245,172.236725 548.776245,159.482605 548.776245,146.557526 
	C515.202698,146.557526 481.862671,146.557526 448.456268,146.557526 
	C448.456268,159.588104 448.456268,172.333969 448.456268,185.543991 
	C455.937897,185.543991 463.218872,185.543991 471.499847,185.544052 
M389.499756,185.540894 
	C401.632751,185.540894 413.765717,185.540894 426.001312,185.540894 
	C426.001312,172.281281 426.001312,159.511276 426.001312,146.530640 
	C401.851685,146.530640 377.933624,146.530640 353.869751,146.530640 
	C353.869751,159.562943 353.869751,172.340363 353.869751,185.540817 
	C365.552155,185.540817 377.025940,185.540817 389.499756,185.540894 
M327.268250,171.493973 
	C327.268250,163.219193 327.268250,154.944412 327.268250,146.576965 
	C305.993622,146.576965 285.271851,146.576965 264.547668,146.576965 
	C264.547668,159.638290 264.547668,172.392914 264.547668,185.243835 
	C285.513763,185.243835 306.239960,185.243835 327.268280,185.243835 
	C327.268280,180.795059 327.268280,176.642487 327.268250,171.493973 
M184.089066,177.416260 
	C184.089066,180.020264 184.089066,182.624268 184.089066,185.282288 
	C202.259125,185.282288 219.841507,185.282288 237.382645,185.282288 
	C237.382645,172.130814 237.382645,159.250076 237.382645,146.613342 
	C219.429367,146.613342 201.843643,146.613342 184.089066,146.613342 
	C184.089066,156.783279 184.089066,166.609726 184.089066,177.416260 
M124.571228,27.499863 
	C124.571228,51.569199 124.571228,75.638535 124.571228,99.638763 
	C132.067291,99.638763 138.959122,99.638763 145.683777,99.638763 
	C145.683777,68.201622 145.683777,37.124268 145.683777,6.138599 
	C138.485794,6.138599 131.594330,6.138599 124.571182,6.138599 
	C124.571182,13.179414 124.571182,19.839638 124.571228,27.499863 
M110.439293,99.997787 
	C111.723633,99.910789 113.007973,99.823799 114.158386,99.745872 
	C114.158386,68.326981 114.158386,37.243542 114.158386,6.114141 
	C107.010757,6.114141 100.138031,6.114141 93.284843,6.114141 
	C93.284843,37.535648 93.284843,68.599709 93.284843,99.997818 
	C98.849220,99.997818 104.150185,99.997818 110.439293,99.997787 
M157.963150,149.768173 
	C157.253250,148.606033 156.559280,146.442123 155.831116,146.430588 
	C142.906143,146.225327 129.977005,146.281754 117.032639,146.281754 
	C117.032639,159.600967 117.032639,172.434753 117.032639,185.288727 
	C130.813339,185.288727 144.217880,185.288727 157.963272,185.288727 
	C157.963272,173.597717 157.963272,162.157257 157.963150,149.768173 
M86.409500,169.496918 
	C86.409500,161.880981 86.409500,154.265045 86.409500,146.508713 
	C75.368805,146.508713 64.800179,146.508713 54.128456,146.508713 
	C54.128456,159.579620 54.128456,172.415390 54.128456,185.223389 
	C65.044975,185.223389 75.597618,185.223389 86.409416,185.223389 
	C86.409416,180.103592 86.409416,175.298920 86.409500,169.496918 
M26.340405,156.522980 
	C26.340405,153.247162 26.340405,149.971344 26.340405,146.593658 
	C18.944881,146.593658 12.058644,146.593658 5.178542,146.593658 
	C5.178542,159.649429 5.178542,172.386459 5.178542,185.217758 
	C12.296975,185.217758 19.172419,185.217758 26.340431,185.217758 
	C26.340431,175.771118 26.340431,166.644577 26.340405,156.522980 
z"/>
<path fill="#171515" opacity="1.000000" stroke="none" 
	d="
M335.916077,92.930206 
	C336.420776,95.120766 336.925507,97.311325 337.487152,99.748878 
	C330.211853,99.748878 322.971985,99.748878 315.219086,99.748878 
	C313.385284,94.729935 311.340424,89.515846 309.601044,84.201775 
	C308.801941,81.760452 307.617859,80.890175 304.996063,80.933929 
	C295.171661,81.097908 285.339783,81.136902 275.517578,80.916138 
	C272.560944,80.849686 271.502502,82.010201 270.669678,84.565331 
	C269.024597,89.612305 267.037598,94.547829 265.116699,99.732651 
	C238.985840,99.732651 212.945435,99.732651 186.744049,99.732651 
	C186.744049,68.470108 186.744049,37.393059 186.744049,6.035492 
	C193.676254,6.035492 200.440033,6.035492 207.752731,6.035492 
	C207.752731,30.889460 207.752731,55.762581 207.752731,81.034409 
	C219.374466,81.034409 230.460175,81.034409 241.866119,81.034409 
	C241.866119,86.859520 241.866119,92.294960 241.866119,97.730392 
	C242.126221,97.813049 242.386322,97.895706 242.646439,97.978363 
	C243.175690,96.939552 243.792984,95.935692 244.221375,94.856827 
	C255.449219,66.581024 266.708771,38.317532 277.794708,9.986109 
	C278.985138,6.943825 280.230347,5.441779 283.773071,5.661741 
	C289.398438,6.011012 295.061401,5.754934 300.720276,5.754934 
	C312.008820,34.182041 323.174316,62.299351 334.656128,90.912704 
	C334.987640,91.621964 335.002838,91.835175 335.077057,92.372139 
	C335.446899,92.814857 335.757690,92.933807 336.032257,93.019791 
	C335.996033,92.986824 335.916077,92.930199 335.916077,92.930206 
M297.194336,62.343864 
	C298.403687,62.203621 299.613068,62.063374 301.175232,61.882214 
	C297.556854,51.689495 294.109711,41.979130 290.216400,31.012032 
	C286.296936,42.107838 282.832520,51.915359 279.148682,62.344070 
	C285.318024,62.344070 290.789948,62.344070 297.194336,62.343864 
z"/>
<path fill="#171515" opacity="1.000000" stroke="none" 
	d="
M480.018036,42.000000 
	C480.018036,29.724691 480.018036,17.949383 480.018036,6.055779 
	C495.125580,6.055779 509.775787,5.390687 524.333923,6.262303 
	C536.383728,6.983741 545.483398,17.521032 546.864502,30.016544 
	C548.512390,44.926392 542.813171,55.408577 530.478760,60.185089 
	C529.867493,60.421810 529.309204,60.795353 528.316406,61.323048 
	C535.707764,73.956642 543.044373,86.496620 550.938354,99.989273 
	C542.913086,99.989273 535.554749,100.133743 528.214661,99.832558 
	C527.121277,99.787697 525.851135,97.791939 525.108521,96.451729 
	C519.547119,86.414963 513.990662,76.372070 508.675812,66.204063 
	C506.986603,62.972446 504.981293,61.805923 501.251068,63.293316 
	C501.251068,75.319534 501.251068,87.419044 501.251068,99.756950 
	C494.145477,99.756950 487.388275,99.756950 480.018036,99.756950 
	C480.018036,80.657753 480.018036,61.578876 480.018036,42.000000 
M504.707520,47.953835 
	C508.829742,47.590149 513.068359,47.708652 517.046570,46.748283 
	C522.824951,45.353336 525.284973,41.173756 525.148254,34.633263 
	C525.020081,28.506802 522.357239,24.248867 516.659912,23.342793 
	C511.727539,22.558369 506.571564,23.179762 501.216644,23.179762 
	C501.216644,30.747999 501.129211,38.051937 501.329712,45.347973 
	C501.354156,46.237812 502.925354,47.085144 504.707520,47.953835 
z"/>
<path fill="#171515" opacity="1.000000" stroke="none" 
	d="
M43.776077,35.786339 
	C46.086201,31.991234 48.218369,28.514318 50.721802,24.431980 
	C37.065792,24.431980 24.311411,24.431980 11.172197,24.431980 
	C11.172197,18.255924 11.172197,12.359829 11.172197,6.106998 
	C36.329590,6.106998 61.672306,6.106998 87.848976,6.106998 
	C72.385849,31.098265 57.207478,55.629307 41.588390,80.872627 
	C56.313007,80.872627 70.457527,80.872627 84.847092,80.872627 
	C84.847092,87.417412 84.847092,93.357903 84.847092,99.649765 
	C58.422466,99.649765 31.844719,99.649765 4.324599,99.649765 
	C17.519564,78.300079 30.558842,57.202305 43.776077,35.786339 
z"/>
<path fill="#181616" opacity="1.000000" stroke="none" 
	d="
M470.008728,24.193798 
	C457.375214,24.235458 445.243866,24.235458 432.778198,24.235458 
	C432.778198,30.808491 432.778198,37.032200 432.778198,43.732620 
	C445.550018,43.732620 458.112396,43.732620 470.888733,43.732620 
	C470.888733,49.946568 470.888733,55.687107 470.888733,61.856346 
	C458.122467,61.856346 445.536621,61.856346 432.699738,61.856346 
	C432.699738,68.369324 432.699738,74.456802 432.699738,81.047050 
	C445.572906,81.047050 458.306122,81.047050 471.233887,81.047050 
	C471.233887,87.500771 471.233887,93.456512 471.233887,99.707481 
	C451.526428,99.707481 431.770844,99.707481 411.654510,99.707481 
	C411.654510,68.622742 411.654510,37.440639 411.654510,6.005371 
	C431.502869,6.005371 451.230133,6.005371 471.840668,6.005371 
	C471.385468,12.217641 470.948212,18.184891 470.008728,24.193798 
z"/>
<path fill="#1B1919" opacity="1.000000" stroke="none" 
	d="
M470.999847,185.544022 
	C463.218872,185.543991 455.937897,185.543991 448.456268,185.543991 
	C448.456268,172.333969 448.456268,159.588104 448.456268,146.557526 
	C481.862671,146.557526 515.202698,146.557526 548.776245,146.557526 
	C548.776245,159.482605 548.776245,172.236725 548.776245,185.544052 
	C523.000977,185.544052 497.250427,185.544052 470.999847,185.544022 
z"/>
<path fill="#181616" opacity="1.000000" stroke="none" 
	d="
M335.018005,92.048370 
	C335.002838,91.835175 334.987640,91.621964 334.945282,91.089279 
	C338.264160,85.083580 341.610229,79.397369 345.055359,73.542793 
	C353.647888,78.257233 361.919006,82.507919 371.618683,81.967422 
	C373.416595,81.867233 375.275177,81.600555 376.963470,81.006416 
	C384.063171,78.507904 385.791412,70.683037 379.815613,66.148285 
	C375.529877,62.896057 370.294250,60.888771 365.461151,58.366772 
	C361.208984,56.147926 356.686737,54.350086 352.707825,51.723854 
	C343.894073,45.906452 339.853882,37.495529 341.063812,26.929268 
	C342.205231,16.961119 348.434265,10.706915 357.253937,7.099048 
	C371.024628,1.465864 384.559448,3.485331 397.749420,9.439110 
	C399.666595,10.304497 401.438141,11.492553 403.607880,12.718190 
	C400.133728,18.531811 396.842621,24.039095 393.863037,29.025105 
	C388.309692,27.044500 383.312286,24.705679 378.055389,23.593872 
	C374.848846,22.915705 371.059235,23.564260 367.856171,24.610701 
	C361.977173,26.531380 360.826477,32.879398 365.690308,36.735977 
	C368.749023,39.161236 372.529327,40.727043 376.098450,42.444595 
	C380.123627,44.381641 384.399261,45.819225 388.349060,47.888187 
	C401.802094,54.935112 407.550201,66.152451 404.971008,79.834381 
	C402.921387,90.707085 391.885223,99.222076 378.293915,101.071861 
	C363.392059,103.100014 349.634430,100.106354 336.288300,92.865540 
	C335.916077,92.930199 335.996033,92.986824 336.048737,92.724274 
	C335.740295,92.323944 335.379150,92.186157 335.018005,92.048370 
z"/>
<path fill="#1A1818" opacity="1.000000" stroke="none" 
	d="
M388.999756,185.540863 
	C377.025940,185.540817 365.552155,185.540817 353.869751,185.540817 
	C353.869751,172.340363 353.869751,159.562943 353.869751,146.530640 
	C377.933624,146.530640 401.851685,146.530640 426.001312,146.530640 
	C426.001312,159.511276 426.001312,172.281281 426.001312,185.540894 
	C413.765717,185.540894 401.632751,185.540894 388.999756,185.540863 
z"/>
<path fill="#1B1919" opacity="1.000000" stroke="none" 
	d="
M327.268250,171.991943 
	C327.268280,176.642487 327.268280,180.795059 327.268280,185.243835 
	C306.239960,185.243835 285.513763,185.243835 264.547668,185.243835 
	C264.547668,172.392914 264.547668,159.638290 264.547668,146.576965 
	C285.271851,146.576965 305.993622,146.576965 327.268250,146.576965 
	C327.268250,154.944412 327.268250,163.219193 327.268250,171.991943 
z"/>
<path fill="#1C1A1A" opacity="1.000000" stroke="none" 
	d="
M184.089066,176.926208 
	C184.089066,166.609726 184.089066,156.783279 184.089066,146.613342 
	C201.843643,146.613342 219.429367,146.613342 237.382645,146.613342 
	C237.382645,159.250076 237.382645,172.130814 237.382645,185.282288 
	C219.841507,185.282288 202.259125,185.282288 184.089066,185.282288 
	C184.089066,182.624268 184.089066,180.020264 184.089066,176.926208 
z"/>
<path fill="#161414" opacity="1.000000" stroke="none" 
	d="
M124.571205,26.999863 
	C124.571182,19.839638 124.571182,13.179414 124.571182,6.138599 
	C131.594330,6.138599 138.485794,6.138599 145.683777,6.138599 
	C145.683777,37.124268 145.683777,68.201622 145.683777,99.638763 
	C138.959122,99.638763 132.067291,99.638763 124.571228,99.638763 
	C124.571228,75.638535 124.571228,51.569199 124.571205,26.999863 
z"/>
<path fill="#161414" opacity="1.000000" stroke="none" 
	d="
M109.945221,99.997803 
	C104.150185,99.997818 98.849220,99.997818 93.284843,99.997818 
	C93.284843,68.599709 93.284843,37.535648 93.284843,6.114141 
	C100.138031,6.114141 107.010757,6.114141 114.158386,6.114141 
	C114.158386,37.243542 114.158386,68.326981 114.158386,99.745872 
	C113.007973,99.823799 111.723633,99.910789 109.945221,99.997803 
z"/>
<path fill="#1A1818" opacity="1.000000" stroke="none" 
	d="
M157.963211,150.242493 
	C157.963272,162.157257 157.963272,173.597717 157.963272,185.288727 
	C144.217880,185.288727 130.813339,185.288727 117.032639,185.288727 
	C117.032639,172.434753 117.032639,159.600967 117.032639,146.281754 
	C129.977005,146.281754 142.906143,146.225327 155.831116,146.430588 
	C156.559280,146.442123 157.253250,148.606033 157.963211,150.242493 
z"/>
<path fill="#1A1818" opacity="1.000000" stroke="none" 
	d="
M86.409454,169.995590 
	C86.409416,175.298920 86.409416,180.103592 86.409416,185.223389 
	C75.597618,185.223389 65.044975,185.223389 54.128456,185.223389 
	C54.128456,172.415390 54.128456,159.579620 54.128456,146.508713 
	C64.800179,146.508713 75.368805,146.508713 86.409500,146.508713 
	C86.409500,154.265045 86.409500,161.880981 86.409454,169.995590 
z"/>
<path fill="#1A1818" opacity="1.000000" stroke="none" 
	d="
M26.340418,157.020508 
	C26.340431,166.644577 26.340431,175.771118 26.340431,185.217758 
	C19.172419,185.217758 12.296975,185.217758 5.178542,185.217758 
	C5.178542,172.386459 5.178542,159.649429 5.178542,146.593658 
	C12.058644,146.593658 18.944881,146.593658 26.340405,146.593658 
	C26.340405,149.971344 26.340405,153.247162 26.340418,157.020508 
z"/>
<path fill="#F8F7F7" opacity="1.000000" stroke="none" 
	d="
M296.728088,62.343967 
	C290.789948,62.344070 285.318024,62.344070 279.148682,62.344070 
	C282.832520,51.915359 286.296936,42.107838 290.216400,31.012032 
	C294.109711,41.979130 297.556854,51.689495 301.175232,61.882214 
	C299.613068,62.063374 298.403687,62.203621 296.728088,62.343967 
z"/>
<path fill="#FDFDFD" opacity="1.000000" stroke="none" 
	d="
M335.077057,92.372131 
	C335.379150,92.186157 335.740295,92.323944 336.084961,92.757240 
	C335.757690,92.933807 335.446899,92.814857 335.077057,92.372131 
z"/>
<path fill="#F9F9F9" opacity="1.000000" stroke="none" 
	d="
M504.243622,47.953003 
	C502.925354,47.085144 501.354156,46.237812 501.329712,45.347973 
	C501.129211,38.051937 501.216644,30.747999 501.216644,23.179762 
	C506.571564,23.179762 511.727539,22.558369 516.659912,23.342793 
	C522.357239,24.248867 525.020081,28.506802 525.148254,34.633263 
	C525.284973,41.173756 522.824951,45.353336 517.046570,46.748283 
	C513.068359,47.708652 508.829742,47.590149 504.243622,47.953003 
z"/>
</svg>